<svg xmlns="http://www.w3.org/2000/svg" width="105" height="30" viewBox="0 0 105 30" fill="none"><metadata><rdf:RDF xmlns:rdf="http://www.w3.org/1999/02/22-rdf-syntax-ns#" xmlns:dc="http://purl.org/dc/elements/1.1/"><rdf:Description><dc:creator>RealFaviconGenerator</dc:creator><dc:source>https://realfavicongenerator.net</dc:source></rdf:Description></rdf:RDF></metadata><path d="M8.87513e-05 29.4886V0.397738H11.4774C13.6838 0.397738 15.5635 0.819139 17.1166 1.66194C18.6696 2.49528 19.8533 3.65531 20.6677 5.14206C21.4916 6.61933 21.9035 8.32387 21.9035 10.2557C21.9035 12.1875 21.4868 13.8921 20.6535 15.3693C19.8202 16.8466 18.6128 17.9972 17.0313 18.821C15.4594 19.6449 13.556 20.0568 11.3211 20.0568H4.00577V15.1279H10.3268C11.5105 15.1279 12.4859 14.9243 13.2529 14.5171C14.0294 14.1004 14.6071 13.5275 14.9859 12.7983C15.3741 12.0597 15.5683 11.2121 15.5683 10.2557C15.5683 9.28978 15.3741 8.44698 14.9859 7.72728C14.6071 6.99812 14.0294 6.43467 13.2529 6.03694C12.4764 5.62975 11.4916 5.42615 10.2984 5.42615H6.15066V29.4886H8.87513e-05ZM52.6315 14.9432C52.6315 18.1155 52.0302 20.8144 50.8275 23.0398C49.6343 25.2652 48.0055 26.965 45.9411 28.1392C43.8862 29.304 41.5756 29.8864 39.0093 29.8864C36.4241 29.8864 34.104 29.2993 32.0491 28.125C29.9942 26.9508 28.3701 25.251 27.1769 23.0256C25.9838 20.8002 25.3872 18.1061 25.3872 14.9432C25.3872 11.7708 25.9838 9.07198 27.1769 6.8466C28.3701 4.62122 29.9942 2.92615 32.0491 1.76137C34.104 0.587132 36.4241 1.00136e-05 39.0093 1.00136e-05C41.5756 1.00136e-05 43.8862 0.587132 45.9411 1.76137C48.0055 2.92615 49.6343 4.62122 50.8275 6.8466C52.0302 9.07198 52.6315 11.7708 52.6315 14.9432ZM46.3957 14.9432C46.3957 12.8883 46.0879 11.1553 45.4724 9.74433C44.8663 8.33334 44.0093 7.26327 42.9014 6.5341C41.7934 5.80494 40.4961 5.44035 39.0093 5.44035C37.5226 5.44035 36.2252 5.80494 35.1173 6.5341C34.0093 7.26327 33.1476 8.33334 32.532 9.74433C31.926 11.1553 31.623 12.8883 31.623 14.9432C31.623 16.9981 31.926 18.7311 32.532 20.1421C33.1476 21.553 34.0093 22.6231 35.1173 23.3523C36.2252 24.0815 37.5226 24.446 39.0093 24.446C40.4961 24.446 41.7934 24.0815 42.9014 23.3523C44.0093 22.6231 44.8663 21.553 45.4724 20.1421C46.0879 18.7311 46.3957 16.9981 46.3957 14.9432ZM74.787 29.4886L65.4404 17.0881H63.3382V29.4886H57.1876V0.397738H63.3382V12.0171H64.574L74.233 0.397738H81.8893L70.5399 13.8921L82.4149 29.4886H74.787ZM104.812 0.397738V5.46876H91.6585V29.4886H85.5079V0.397738H104.812Z" fill="#4C6FFF"></path><style>@media (prefers-color-scheme: light) { :root { filter: contrast(1) brightness(1); } }
</style></svg>